<svg width="24" height="25" viewBox="0 0 24 25" fill="none" xmlns="http://www.w3.org/2000/svg">
<path d="M1.94799 18.504C1.82612 18.3121 1.74971 18.0975 1.72402 17.875C1.69834 17.6525 1.72398 17.4274 1.7992 17.2152C2.31649 15.7585 2.71374 14.2661 2.9874 12.7514C3.02778 12.5311 3.11795 12.3217 3.25175 12.1374C3.38556 11.953 3.55984 11.7982 3.76271 11.6834C3.96558 11.5686 4.19226 11.4966 4.42726 11.4722C4.66227 11.4478 4.90007 11.4717 5.12444 11.5421L5.68727 11.7134C5.60502 11.4042 5.60502 11.0805 5.68727 10.7713C5.81064 10.3056 6.10947 9.89841 6.5277 9.62618C6.94593 9.35395 7.45483 9.23536 7.95893 9.29266C8.46304 9.34997 8.92772 9.57922 9.2658 9.93743C9.60389 10.2956 9.79216 10.7582 9.79529 11.2383C9.79983 11.7294 9.60716 12.2038 9.25618 12.5658C9.90312 12.6821 10.5199 12.7697 11.1215 12.8493C11.1915 12.858 11.2589 12.8796 11.32 12.913C11.3811 12.9463 11.4347 12.9907 11.4776 13.0437C11.5206 13.0966 11.5521 13.157 11.5703 13.2214C11.5886 13.2859 11.5933 13.3531 11.5841 13.4192C11.5749 13.4854 11.552 13.5492 11.5167 13.6069C11.4814 13.6647 11.4345 13.7154 11.3785 13.756C11.3225 13.7966 11.2587 13.8264 11.1905 13.8437C11.1224 13.8609 11.0513 13.8653 10.9813 13.8566C10.2029 13.7628 9.38988 13.6323 8.56181 13.4712C8.49143 13.4574 8.4247 13.4304 8.36557 13.3917C8.21934 13.2955 8.10744 13.1595 8.04467 13.0019C7.98191 12.8442 7.97124 12.6723 8.01407 12.5087L8.03132 12.4414C8.07952 12.264 8.18783 12.1065 8.33969 11.9928C8.46148 11.9041 8.55962 11.7896 8.62627 11.6586C8.69292 11.5276 8.72623 11.3837 8.72354 11.2383C8.72267 11.0044 8.63122 10.779 8.46647 10.6046C8.30173 10.4301 8.07511 10.3189 7.82946 10.2917C7.58382 10.2646 7.33618 10.3235 7.13338 10.4574C6.93057 10.5912 6.78665 10.7907 6.72883 11.0181C6.67699 11.2166 6.69516 11.4257 6.78059 11.6135C6.85768 11.7819 6.87434 11.9696 6.82803 12.1478L6.81078 12.2151C6.76499 12.3768 6.66867 12.5217 6.5344 12.6309C6.40012 12.74 6.23415 12.8083 6.05818 12.8268C5.98572 12.8346 5.91235 12.8284 5.84253 12.8085C5.48241 12.7065 5.12659 12.6046 4.78372 12.4924C4.70561 12.4676 4.62273 12.4592 4.54082 12.4676C4.45891 12.4761 4.37992 12.5012 4.3093 12.5414C4.23903 12.5803 4.17867 12.6334 4.13246 12.6968C4.08626 12.7602 4.05534 12.8325 4.0419 12.9084C3.75868 14.4743 3.34773 16.0172 2.81273 17.5231C2.78698 17.5958 2.77795 17.6729 2.78623 17.7491C2.79452 17.8254 2.81992 17.8991 2.86075 17.9653C2.90158 18.0315 2.9569 18.0887 3.02299 18.1331C3.08909 18.1774 3.16444 18.208 3.24402 18.2226C5.3413 18.5615 7.39835 19.0942 9.38557 19.8132C9.45274 19.836 9.5144 19.8714 9.56695 19.9171C9.6195 19.9628 9.66189 20.018 9.69162 20.0793C9.72136 20.1407 9.73786 20.2071 9.74014 20.2746C9.74243 20.3421 9.73046 20.4093 9.70493 20.4723C9.67941 20.5354 9.64084 20.593 9.59149 20.6418C9.54213 20.6906 9.48299 20.7296 9.41751 20.7565C9.35203 20.7834 9.28153 20.7977 9.21014 20.7985C9.13874 20.7994 9.06789 20.7867 9.00172 20.7614C7.08448 20.0714 5.10044 19.5606 3.07797 19.2361C2.84488 19.1985 2.62317 19.1136 2.4281 18.9872C2.23304 18.8608 2.06924 18.6959 1.94799 18.504V18.504Z" fill="#116AF4"/>
<path d="M14.1094 5.8487C14.607 5.97359 15.0415 6.27245 15.332 6.6896C15.6225 7.10675 15.7491 7.61372 15.6883 8.11606C15.6276 8.61839 15.3835 9.08182 15.0016 9.41998C14.6197 9.75815 14.1261 9.94799 13.6126 9.95412C13.0856 9.95865 12.5765 9.76601 12.188 9.41507C12.0632 10.0619 11.9691 10.6786 11.8838 11.2802C11.8668 11.4092 11.8029 11.5278 11.7039 11.6138C11.6048 11.6999 11.4775 11.7476 11.3454 11.7481H11.2754C11.2036 11.7393 11.1342 11.7166 11.0715 11.6811C11.0087 11.6457 10.9536 11.5983 10.9096 11.5417C10.8656 11.4851 10.8335 11.4204 10.8152 11.3515C10.7968 11.2825 10.7926 11.2106 10.8027 11.14C10.9034 10.3616 11.0434 9.54875 11.2163 8.72077C11.2311 8.65039 11.2602 8.58367 11.3017 8.52455C11.4049 8.37833 11.5508 8.26645 11.72 8.20369C11.8892 8.14093 12.0738 8.13026 12.2493 8.17309L12.3215 8.19034C12.5118 8.23853 12.6809 8.34683 12.8029 8.49868C12.8982 8.62045 13.021 8.71858 13.1616 8.78522C13.3022 8.85186 13.4567 8.88517 13.6126 8.88248V8.88248C13.8636 8.88161 14.1056 8.79017 14.2928 8.62544C14.48 8.46071 14.5994 8.23412 14.6285 7.9885C14.6576 7.74289 14.5944 7.49528 14.4507 7.29249C14.3071 7.08971 14.093 6.9458 13.849 6.88799C13.636 6.83616 13.4116 6.85433 13.21 6.93974C13.0292 7.01683 12.8279 7.03349 12.6366 6.98718L12.5644 6.96993C12.3908 6.92415 12.2353 6.82784 12.1182 6.69358C12.001 6.55932 11.9277 6.39337 11.9079 6.21741C11.8994 6.14497 11.9061 6.07159 11.9276 6.00179C12.037 5.64171 12.1464 5.28593 12.2668 4.9431C12.2934 4.86499 12.3025 4.78213 12.2934 4.70023C12.2843 4.61833 12.2573 4.53934 12.2142 4.46873C12.1724 4.39847 12.1155 4.33811 12.0474 4.29191C11.9794 4.24571 11.9018 4.2148 11.8203 4.20136C10.1398 3.91817 8.48405 3.50726 6.86789 2.97232C6.78988 2.94658 6.7072 2.93755 6.62537 2.94583C6.54354 2.95412 6.46445 2.97952 6.39338 3.02034C6.32232 3.06117 6.26092 3.11648 6.2133 3.18257C6.16568 3.24866 6.13294 3.324 6.11725 3.40356C5.75357 5.50062 5.18183 7.55744 4.41027 9.54444C4.35667 9.67471 4.25334 9.77908 4.1225 9.83511C3.99165 9.89115 3.84371 9.89439 3.71046 9.84414C3.57722 9.79388 3.46929 9.69414 3.40987 9.56634C3.35044 9.43854 3.34426 9.29287 3.39265 9.16063C4.13311 7.24361 4.68137 5.25979 5.0296 3.23754C5.07018 3.0042 5.16152 2.78227 5.29737 2.58699C5.43321 2.39171 5.61033 2.22771 5.81657 2.10624C6.02281 1.98477 6.25329 1.90871 6.49218 1.88327C6.73107 1.85784 6.97271 1.88364 7.20053 1.95891C8.76313 2.47604 10.364 2.87324 11.9888 3.14698C12.2252 3.18735 12.45 3.27751 12.6478 3.4113C12.8456 3.54509 13.0118 3.71936 13.135 3.9222C13.2582 4.12505 13.3355 4.3517 13.3616 4.58668C13.3878 4.82166 13.3622 5.05944 13.2866 5.28378C13.2253 5.46705 13.1618 5.6568 13.1027 5.84655C13.4334 5.76565 13.7792 5.76639 14.1094 5.8487V5.8487Z" fill="#116AF4"/>
<path d="M14.9829 4.35861C16.9045 5.05443 18.8936 5.57002 20.9216 5.89795C21.1549 5.9358 21.3769 6.02102 21.5722 6.14774C21.7675 6.27447 21.9315 6.4397 22.053 6.6321C22.1744 6.8245 22.2505 7.0395 22.2759 7.26236C22.3014 7.48522 22.2756 7.71065 22.2003 7.92317C21.6831 9.3809 21.2859 10.8743 21.0121 12.3901C20.9718 12.6106 20.8816 12.8203 20.7478 13.0048C20.614 13.1894 20.4397 13.3444 20.2368 13.4593C20.034 13.5742 19.8073 13.6464 19.5723 13.6708C19.3373 13.6952 19.0995 13.6713 18.8752 13.6007L18.3123 13.4293C18.3946 13.7388 18.3946 14.0629 18.3123 14.3725C18.1991 14.7981 17.9391 15.1758 17.5735 15.4458C17.2079 15.7157 16.7576 15.8625 16.294 15.8628C15.9815 15.8626 15.673 15.797 15.3904 15.6709C15.037 15.5129 14.7381 15.2633 14.5282 14.9512C14.3183 14.639 14.2061 14.277 14.2044 13.907C14.1999 13.4153 14.3926 12.9403 14.7435 12.5779C14.0966 12.4616 13.4799 12.3738 12.8783 12.2941C12.8083 12.2854 12.7409 12.2638 12.6798 12.2304C12.6187 12.197 12.5651 12.1525 12.5222 12.0995C12.4792 12.0465 12.4477 11.9861 12.4294 11.9216C12.4112 11.857 12.4065 11.7898 12.4157 11.7235C12.4249 11.6573 12.4478 11.5935 12.4831 11.5356C12.5184 11.4778 12.5653 11.4271 12.6213 11.3864C12.6772 11.3457 12.7411 11.3159 12.8093 11.2986C12.8774 11.2813 12.9485 11.2769 13.0184 11.2856C13.7969 11.3795 14.6098 11.5102 15.4379 11.6715C15.5083 11.6853 15.575 11.7124 15.6341 11.7511C15.7803 11.8474 15.8922 11.9835 15.955 12.1414C16.0178 12.2992 16.0284 12.4714 15.9856 12.6351L15.9684 12.7025C15.9202 12.88 15.8119 13.0378 15.66 13.1516C15.5382 13.2404 15.4401 13.355 15.3734 13.4862C15.3068 13.6173 15.2735 13.7614 15.2762 13.907C15.277 14.1411 15.3685 14.3668 15.5332 14.5415C15.698 14.7161 15.9246 14.8275 16.1702 14.8546C16.4158 14.8818 16.6635 14.8228 16.8663 14.6888C17.0691 14.5548 17.213 14.3551 17.2708 14.1275C17.3227 13.9287 17.3045 13.7194 17.2191 13.5313C17.142 13.3627 17.1253 13.1749 17.1716 12.9964L17.1889 12.9291C17.2347 12.7671 17.331 12.6221 17.4652 12.5128C17.5995 12.4035 17.7655 12.3351 17.9414 12.3166C18.0139 12.3087 18.0873 12.315 18.1571 12.335C18.5172 12.4371 18.873 12.5391 19.2159 12.6514C19.294 12.6762 19.3768 12.6847 19.4588 12.6763C19.5407 12.6678 19.6197 12.6426 19.6903 12.6024C19.7605 12.5634 19.8209 12.5103 19.8671 12.4468C19.9133 12.3833 19.9442 12.311 19.9577 12.2349C20.2409 10.6672 20.6518 9.12259 21.1868 7.6149C21.2125 7.54213 21.2216 7.46499 21.2133 7.38866C21.205 7.31232 21.1796 7.23853 21.1388 7.17224C21.0979 7.10594 21.0426 7.04867 20.9765 7.00425C20.9104 6.95982 20.8351 6.92927 20.7555 6.91464C18.6583 6.57534 16.6013 6.04198 14.6142 5.32223C14.4839 5.27222 14.3795 5.17583 14.3235 5.05376C14.2674 4.9317 14.2642 4.79369 14.3144 4.66939C14.3647 4.54508 14.4644 4.4444 14.5922 4.38897C14.7201 4.33353 14.8657 4.32776 14.998 4.3729L14.9829 4.35861Z" fill="#116AF4"/>
<path d="M12.2349 20.921C13.9031 21.2048 15.5468 21.6165 17.1512 22.1525C17.2286 22.1783 17.3107 22.1873 17.3919 22.179C17.4732 22.1707 17.5517 22.1453 17.6222 22.1044C17.6928 22.0635 17.7537 22.0081 17.801 21.9418C17.8483 21.8756 17.8808 21.8001 17.8964 21.7204C18.2574 19.6192 18.825 17.5583 19.5909 15.5673C19.6153 15.5 19.6529 15.4383 19.7016 15.3856C19.7503 15.333 19.8091 15.2905 19.8745 15.2607C19.9399 15.2309 20.0106 15.2144 20.0825 15.2121C20.1544 15.2098 20.226 15.2218 20.2932 15.2474C20.3603 15.2729 20.4217 15.3116 20.4737 15.361C20.5257 15.4105 20.5672 15.4697 20.5959 15.5353C20.6246 15.6009 20.6398 15.6716 20.6407 15.7431C20.6416 15.8146 20.6281 15.8856 20.6011 15.9519C19.8606 17.8771 19.312 19.87 18.963 21.9019C18.9228 22.1357 18.8321 22.3581 18.6972 22.5537C18.5624 22.7494 18.3865 22.9137 18.1818 23.0354C17.9771 23.1571 17.7483 23.2333 17.5111 23.2588C17.274 23.2843 17.0341 23.2585 16.8079 23.183C15.2567 22.6649 13.6675 22.2669 12.0545 21.9926C11.8199 21.9522 11.5967 21.8618 11.4004 21.7278C11.204 21.5937 11.0391 21.4191 10.9168 21.2159C10.7945 21.0126 10.7177 20.7855 10.6917 20.5501C10.6658 20.3146 10.6912 20.0764 10.7663 19.8516C10.8271 19.6679 10.8901 19.4778 10.9487 19.2877C10.6193 19.3701 10.2745 19.3701 9.94506 19.2877C9.43609 19.1758 8.98715 18.8797 8.68546 18.4569C8.38378 18.0342 8.2509 17.515 8.31265 17.0003C8.3744 16.4855 8.62638 16.012 9.01961 15.6717C9.41283 15.3315 9.91923 15.1487 10.4404 15.159V15.159C10.9636 15.1545 11.469 15.3475 11.8547 15.6991C11.9785 15.051 12.0719 14.4331 12.1566 13.8303C12.1827 13.696 12.2591 13.5765 12.3706 13.4963C12.482 13.4161 12.62 13.381 12.7564 13.3984C12.8929 13.4157 13.0176 13.4841 13.1051 13.5896C13.1926 13.6952 13.2365 13.8299 13.2277 13.9664C13.1277 14.7463 12.9887 15.5609 12.8171 16.3905C12.8024 16.461 12.7735 16.5278 12.7324 16.5871C12.6298 16.7336 12.485 16.8457 12.3171 16.9086C12.1491 16.9715 11.9659 16.9822 11.7917 16.9392L11.72 16.922C11.531 16.8737 11.3631 16.7652 11.242 16.613C11.1473 16.4921 11.0255 16.3948 10.8863 16.3288C10.7472 16.2628 10.5945 16.2299 10.4404 16.2328V16.2328C10.1912 16.2336 9.95104 16.3253 9.76522 16.4903C9.5794 16.6554 9.46084 16.8824 9.43194 17.1285C9.40305 17.3746 9.46583 17.6227 9.60842 17.8259C9.751 18.0291 9.96351 18.1733 10.2058 18.2312C10.4172 18.2831 10.64 18.2649 10.8401 18.1794C11.0195 18.1021 11.2195 18.0854 11.4093 18.1318L11.481 18.1491C11.6533 18.195 11.8077 18.2915 11.924 18.426C12.0403 18.5605 12.113 18.7268 12.1328 18.9031C12.1411 18.9757 12.1345 19.0492 12.1132 19.1192C12.0046 19.48 11.896 19.8365 11.7765 20.18C11.7501 20.2582 11.741 20.3413 11.75 20.4233C11.759 20.5054 11.7858 20.5845 11.8286 20.6553C11.8719 20.7271 11.9309 20.7882 12.0012 20.8342C12.0716 20.8802 12.1514 20.9099 12.2349 20.921Z" fill="#116AF4"/>
</svg>
