<svg width="24" height="24" viewBox="0 0 24 24" fill="none" xmlns="http://www.w3.org/2000/svg">
<path d="M1.94799 17.9327C1.82612 17.7408 1.74971 17.5262 1.72402 17.3037C1.69834 17.0813 1.72398 16.8561 1.7992 16.6439C2.31649 15.1872 2.71374 13.6948 2.9874 12.1801C3.02778 11.9598 3.11795 11.7504 3.25175 11.5661C3.38556 11.3818 3.55984 11.2269 3.76271 11.1121C3.96558 10.9973 4.19226 10.9253 4.42726 10.9009C4.66227 10.8765 4.90007 10.9004 5.12444 10.9709L5.68727 11.1422C5.60502 10.8329 5.60502 10.5093 5.68727 10.2C5.81064 9.7343 6.10947 9.32712 6.5277 9.05489C6.94593 8.78266 7.45483 8.66407 7.95893 8.72137C8.46304 8.77868 8.92772 9.00794 9.2658 9.36614C9.60389 9.72435 9.79216 10.1869 9.79529 10.667C9.79983 11.1581 9.60716 11.6325 9.25618 11.9945C9.90312 12.1108 10.5199 12.1985 11.1215 12.278C11.1915 12.2867 11.2589 12.3083 11.32 12.3417C11.3811 12.375 11.4347 12.4194 11.4776 12.4724C11.5206 12.5253 11.5521 12.5857 11.5703 12.6501C11.5886 12.7146 11.5933 12.7818 11.5841 12.8479C11.5749 12.9141 11.552 12.9779 11.5167 13.0356C11.4814 13.0934 11.4345 13.1441 11.3785 13.1847C11.3225 13.2253 11.2587 13.2551 11.1905 13.2724C11.1224 13.2896 11.0513 13.2941 10.9813 13.2854C10.2029 13.1915 9.38988 13.061 8.56181 12.8999C8.49143 12.8861 8.4247 12.8591 8.36557 12.8204C8.21934 12.7242 8.10744 12.5883 8.04467 12.4306C7.98191 12.2729 7.97124 12.101 8.01407 11.9374L8.03132 11.8701C8.07952 11.6928 8.18783 11.5352 8.33969 11.4215C8.46148 11.3328 8.55962 11.2183 8.62627 11.0873C8.69292 10.9563 8.72623 10.8124 8.72354 10.667C8.72267 10.4332 8.63122 10.2077 8.46647 10.0333C8.30173 9.85885 8.07511 9.74756 7.82946 9.72044C7.58382 9.69332 7.33618 9.75225 7.13338 9.88609C6.93057 10.0199 6.78665 10.2194 6.72883 10.4468C6.67699 10.6453 6.69516 10.8544 6.78059 11.0422C6.85768 11.2106 6.87434 11.3983 6.82803 11.5765L6.81078 11.6438C6.76499 11.8055 6.66867 11.9505 6.5344 12.0596C6.40012 12.1687 6.23415 12.237 6.05818 12.2556C5.98572 12.2633 5.91235 12.2571 5.84253 12.2372C5.48241 12.1352 5.12659 12.0333 4.78372 11.9211C4.70561 11.8963 4.62273 11.8879 4.54082 11.8963C4.45891 11.9048 4.37992 11.9299 4.3093 11.9701C4.23903 12.009 4.17867 12.0621 4.13246 12.1255C4.08626 12.1889 4.05534 12.2612 4.0419 12.3371C3.75868 13.903 3.34773 15.4459 2.81273 16.9518C2.78698 17.0245 2.77795 17.1016 2.78623 17.1778C2.79452 17.2541 2.81992 17.3278 2.86075 17.394C2.90158 17.4602 2.9569 17.5174 3.02299 17.5618C3.08909 17.6062 3.16444 17.6367 3.24402 17.6513C5.3413 17.9902 7.39835 18.5229 9.38557 19.2419C9.45274 19.2648 9.5144 19.3001 9.56695 19.3458C9.6195 19.3915 9.66189 19.4467 9.69162 19.508C9.72136 19.5694 9.73786 19.6358 9.74014 19.7033C9.74243 19.7708 9.73046 19.838 9.70493 19.9011C9.67941 19.9641 9.64084 20.0217 9.59149 20.0705C9.54213 20.1193 9.48299 20.1583 9.41751 20.1852C9.35203 20.2121 9.28153 20.2264 9.21014 20.2273C9.13874 20.2281 9.06789 20.2155 9.00172 20.1901C7.08448 19.5001 5.10044 18.9893 3.07797 18.6648C2.84488 18.6272 2.62317 18.5423 2.4281 18.4159C2.23304 18.2895 2.06924 18.1247 1.94799 17.9327V17.9327Z" fill="#8E8FA1"/>
<path d="M14.1094 5.27741C14.607 5.4023 15.0415 5.70116 15.332 6.11831C15.6225 6.53546 15.7491 7.04243 15.6883 7.54477C15.6276 8.0471 15.3835 8.51053 15.0016 8.8487C14.6197 9.18686 14.1261 9.3767 13.6126 9.38283C13.0856 9.38736 12.5765 9.19472 12.188 8.84378C12.0632 9.49064 11.9691 10.1073 11.8838 10.7089C11.8668 10.8379 11.8029 10.9565 11.7039 11.0425C11.6048 11.1286 11.4775 11.1763 11.3454 11.1768H11.2754C11.2036 11.168 11.1342 11.1453 11.0715 11.1099C11.0087 11.0744 10.9536 11.027 10.9096 10.9704C10.8656 10.9138 10.8335 10.8491 10.8152 10.7802C10.7968 10.7112 10.7926 10.6393 10.8027 10.5687C10.9034 9.79035 11.0434 8.97746 11.2163 8.14948C11.2311 8.0791 11.2602 8.01238 11.3017 7.95326C11.4049 7.80705 11.5508 7.69516 11.72 7.6324C11.8892 7.56964 12.0738 7.55897 12.2493 7.6018L12.3215 7.61905C12.5118 7.66724 12.6809 7.77554 12.8029 7.92739C12.8982 8.04916 13.021 8.14729 13.1616 8.21393C13.3022 8.28057 13.4567 8.31388 13.6126 8.31119V8.31119C13.8636 8.31032 14.1056 8.21888 14.2928 8.05415C14.48 7.88942 14.5994 7.66283 14.6285 7.41721C14.6576 7.1716 14.5944 6.92399 14.4507 6.7212C14.3071 6.51842 14.093 6.37452 13.849 6.3167C13.636 6.26487 13.4116 6.28304 13.21 6.36845C13.0292 6.44554 12.8279 6.4622 12.6366 6.41589L12.5644 6.39864C12.3908 6.35286 12.2353 6.25655 12.1182 6.12229C12.001 5.98803 11.9277 5.82208 11.9079 5.64612C11.8994 5.57368 11.9061 5.5003 11.9276 5.4305C12.037 5.07042 12.1464 4.71464 12.2668 4.37181C12.2934 4.2937 12.3025 4.21084 12.2934 4.12894C12.2843 4.04704 12.2573 3.96806 12.2142 3.89744C12.1724 3.82718 12.1155 3.76682 12.0474 3.72062C11.9794 3.67443 11.9018 3.64351 11.8203 3.63007C10.1398 3.34688 8.48405 2.93597 6.86789 2.40103C6.78988 2.37529 6.7072 2.36626 6.62537 2.37454C6.54354 2.38283 6.46445 2.40823 6.39338 2.44906C6.32232 2.48988 6.26092 2.54519 6.2133 2.61128C6.16568 2.67737 6.13294 2.75271 6.11725 2.83228C5.75357 4.92933 5.18183 6.98615 4.41027 8.97315C4.35667 9.10342 4.25334 9.20779 4.1225 9.26383C3.99165 9.31986 3.84371 9.3231 3.71046 9.27285C3.57722 9.22259 3.46929 9.12285 3.40987 8.99505C3.35044 8.86725 3.34426 8.72159 3.39265 8.58934C4.13311 6.67232 4.68137 4.6885 5.0296 2.66625C5.07018 2.43291 5.16152 2.21098 5.29737 2.0157C5.43321 1.82042 5.61033 1.65642 5.81657 1.53495C6.02281 1.41348 6.25329 1.33742 6.49218 1.31199C6.73107 1.28655 6.97271 1.31236 7.20053 1.38762C8.76313 1.90475 10.364 2.30196 11.9888 2.57569C12.2252 2.61606 12.45 2.70622 12.6478 2.84001C12.8456 2.9738 13.0118 3.14807 13.135 3.35091C13.2582 3.55376 13.3355 3.78041 13.3616 4.01539C13.3878 4.25037 13.3622 4.48815 13.2866 4.71249C13.2253 4.89576 13.1618 5.08551 13.1027 5.27526C13.4334 5.19436 13.7792 5.1951 14.1094 5.27741V5.27741Z" fill="#8E8FA1"/>
<path d="M14.9829 3.78732C16.9045 4.48314 18.8936 4.99873 20.9216 5.32666C21.1549 5.36451 21.3769 5.44973 21.5722 5.57645C21.7675 5.70318 21.9315 5.86841 22.053 6.06081C22.1744 6.25321 22.2505 6.46821 22.2759 6.69107C22.3014 6.91393 22.2756 7.13936 22.2003 7.35188C21.6831 8.80961 21.2859 10.303 21.0121 11.8188C20.9718 12.0393 20.8816 12.249 20.7478 12.4336C20.614 12.6181 20.4397 12.7731 20.2368 12.888C20.034 13.0029 19.8073 13.0751 19.5723 13.0995C19.3373 13.1239 19.0995 13.1 18.8752 13.0295L18.3123 12.858C18.3946 13.1675 18.3946 13.4916 18.3123 13.8012C18.1991 14.2268 17.9391 14.6045 17.5735 14.8745C17.2079 15.1444 16.7576 15.2912 16.294 15.2915C15.9815 15.2913 15.673 15.2258 15.3904 15.0996C15.037 14.9416 14.7381 14.692 14.5282 14.3799C14.3183 14.0677 14.2061 13.7057 14.2044 13.3357C14.1999 12.844 14.3926 12.369 14.7435 12.0066C14.0966 11.8903 13.4799 11.8025 12.8783 11.7229C12.8083 11.7141 12.7409 11.6925 12.6798 11.6591C12.6187 11.6257 12.5651 11.5812 12.5222 11.5282C12.4792 11.4753 12.4477 11.4148 12.4294 11.3503C12.4112 11.2858 12.4065 11.2185 12.4157 11.1522C12.4249 11.086 12.4478 11.0222 12.4831 10.9643C12.5184 10.9065 12.5653 10.8558 12.6213 10.8151C12.6772 10.7744 12.7411 10.7446 12.8093 10.7273C12.8774 10.71 12.9485 10.7056 13.0184 10.7143C13.7969 10.8082 14.6098 10.9389 15.4379 11.1002C15.5083 11.114 15.575 11.1411 15.6341 11.1798C15.7803 11.2761 15.8922 11.4122 15.955 11.5701C16.0178 11.7279 16.0284 11.9001 15.9856 12.0638L15.9684 12.1312C15.9202 12.3088 15.8119 12.4665 15.66 12.5803C15.5382 12.6691 15.4401 12.7837 15.3734 12.9149C15.3068 13.0461 15.2735 13.1902 15.2762 13.3357C15.277 13.5698 15.3685 13.7955 15.5332 13.9702C15.698 14.1448 15.9246 14.2562 16.1702 14.2834C16.4158 14.3105 16.6635 14.2515 16.8663 14.1175C17.0691 13.9835 17.213 13.7838 17.2708 13.5562C17.3227 13.3574 17.3045 13.1481 17.2191 12.96C17.142 12.7914 17.1253 12.6036 17.1716 12.4252L17.1889 12.3578C17.2347 12.1959 17.331 12.0508 17.4652 11.9415C17.5995 11.8322 17.7655 11.7639 17.9414 11.7453C18.0139 11.7375 18.0873 11.7437 18.1571 11.7637C18.5172 11.8658 18.873 11.9678 19.2159 12.0801C19.294 12.105 19.3768 12.1134 19.4588 12.105C19.5407 12.0965 19.6197 12.0713 19.6903 12.0311C19.7605 11.9921 19.8209 11.939 19.8671 11.8755C19.9133 11.812 19.9442 11.7397 19.9577 11.6637C20.2409 10.0959 20.6518 8.5513 21.1868 7.04361C21.2125 6.97084 21.2216 6.89371 21.2133 6.81737C21.205 6.74103 21.1796 6.66724 21.1388 6.60095C21.0979 6.53466 21.0426 6.47738 20.9765 6.43296C20.9104 6.38853 20.8351 6.35798 20.7555 6.34335C18.6583 6.00405 16.6013 5.47069 14.6142 4.75094C14.4839 4.70093 14.3795 4.60454 14.3235 4.48248C14.2674 4.36041 14.2642 4.2224 14.3144 4.0981C14.3647 3.9738 14.4644 3.87311 14.5922 3.81768C14.7201 3.76224 14.8657 3.75647 14.998 3.80161L14.9829 3.78732Z" fill="#8E8FA1"/>
<path d="M12.2349 20.3497C13.9031 20.6335 15.5468 21.0452 17.1512 21.5812C17.2286 21.607 17.3107 21.616 17.3919 21.6077C17.4732 21.5995 17.5517 21.574 17.6222 21.5331C17.6928 21.4922 17.7537 21.4368 17.801 21.3705C17.8483 21.3043 17.8808 21.2288 17.8964 21.1491C18.2574 19.0479 18.825 16.987 19.5909 14.996C19.6153 14.9288 19.6529 14.867 19.7016 14.8143C19.7503 14.7617 19.8091 14.7192 19.8745 14.6894C19.9399 14.6596 20.0106 14.6431 20.0825 14.6408C20.1544 14.6385 20.226 14.6505 20.2932 14.6761C20.3603 14.7017 20.4217 14.7403 20.4737 14.7897C20.5257 14.8392 20.5672 14.8984 20.5959 14.964C20.6246 15.0296 20.6398 15.1003 20.6407 15.1718C20.6416 15.2433 20.6281 15.3143 20.6011 15.3806C19.8606 17.3059 19.312 19.2987 18.963 21.3306C18.9228 21.5644 18.8321 21.7868 18.6972 21.9824C18.5624 22.1781 18.3865 22.3424 18.1818 22.4641C17.9771 22.5858 17.7483 22.6621 17.5111 22.6875C17.274 22.713 17.0341 22.6872 16.8079 22.6118C15.2567 22.0936 13.6675 21.6956 12.0545 21.4213C11.8199 21.3809 11.5967 21.2905 11.4004 21.1565C11.204 21.0224 11.0391 20.8478 10.9168 20.6446C10.7945 20.4413 10.7177 20.2142 10.6917 19.9788C10.6658 19.7433 10.6912 19.5051 10.7663 19.2803C10.8271 19.0966 10.8901 18.9065 10.9487 18.7164C10.6193 18.7988 10.2745 18.7988 9.94506 18.7164C9.43609 18.6045 8.98715 18.3084 8.68546 17.8856C8.38378 17.4629 8.2509 16.9437 8.31265 16.429C8.3744 15.9143 8.62638 15.4407 9.01961 15.1005C9.41283 14.7602 9.91923 14.5774 10.4404 14.5877V14.5877C10.9636 14.5832 11.469 14.7762 11.8547 15.1278C11.9785 14.4797 12.0719 13.8618 12.1566 13.259C12.1827 13.1247 12.2591 13.0052 12.3706 12.925C12.482 12.8448 12.62 12.8098 12.7564 12.8271C12.8929 12.8444 13.0176 12.9128 13.1051 13.0183C13.1926 13.1239 13.2365 13.2586 13.2277 13.3951C13.1277 14.1751 12.9887 14.9896 12.8171 15.8192C12.8024 15.8897 12.7735 15.9566 12.7324 16.0158C12.6298 16.1623 12.485 16.2744 12.3171 16.3373C12.1491 16.4002 11.9659 16.4109 11.7917 16.368L11.72 16.3507C11.531 16.3024 11.3631 16.1939 11.242 16.0417C11.1473 15.9208 11.0255 15.8235 10.8863 15.7575C10.7472 15.6915 10.5945 15.6586 10.4404 15.6615V15.6615C10.1912 15.6623 9.95104 15.754 9.76522 15.919C9.5794 16.0841 9.46084 16.3111 9.43194 16.5572C9.40305 16.8033 9.46583 17.0514 9.60842 17.2546C9.751 17.4578 9.96351 17.602 10.2058 17.6599C10.4172 17.7119 10.64 17.6937 10.8401 17.6081C11.0195 17.5308 11.2195 17.5141 11.4093 17.5605L11.481 17.5778C11.6533 17.6237 11.8077 17.7202 11.924 17.8547C12.0403 17.9892 12.113 18.1555 12.1328 18.3318C12.1411 18.4044 12.1345 18.4779 12.1132 18.5479C12.0046 18.9087 11.896 19.2652 11.7765 19.6087C11.7501 19.6869 11.741 19.77 11.75 19.852C11.759 19.9341 11.7858 20.0132 11.8286 20.084C11.8719 20.1558 11.9309 20.2169 12.0012 20.263C12.0716 20.309 12.1514 20.3386 12.2349 20.3497Z" fill="#8E8FA1"/>
</svg>
