<svg width="16" height="20" viewBox="0 0 16 20" fill="none" xmlns="http://www.w3.org/2000/svg">
<path d="M8 19V11M8 19L1.83752 14.5982C1.42695 14.305 1.22166 14.1583 1.11083 13.943C1 13.7276 1 13.4753 1 12.9708V6M8 19L14.1625 14.5982C14.573 14.305 14.7783 14.1583 14.8892 13.943C15 13.7276 15 13.4753 15 12.9708V6M8 11L1 6M8 11L15 6M1 6L6.83752 1.83034C7.39886 1.42938 7.67953 1.2289 8 1.2289C8.32047 1.2289 8.60114 1.42938 9.16248 1.83034L15 6" stroke="#33363F" stroke-width="2" stroke-linejoin="round"/>
<path d="M8 19V11M8 19L1.83752 14.5982C1.42695 14.305 1.22166 14.1583 1.11083 13.943C1 13.7276 1 13.4753 1 12.9708V6M8 19L14.1625 14.5982C14.573 14.305 14.7783 14.1583 14.8892 13.943C15 13.7276 15 13.4753 15 12.9708V6M8 11L1 6M8 11L15 6M1 6L6.83752 1.83034C7.39886 1.42938 7.67953 1.2289 8 1.2289C8.32047 1.2289 8.60114 1.42938 9.16248 1.83034L15 6" stroke="url(#paint0_linear_2165_6733)" stroke-width="2" stroke-linejoin="round"/>
<defs>
<linearGradient id="paint0_linear_2165_6733" x1="1" y1="5" x2="15" y2="19" gradientUnits="userSpaceOnUse">
<stop stop-color="#0062F5"/>
<stop offset="1" stop-color="#9000B4"/>
</linearGradient>
</defs>
</svg>
